REM DIRINDEX 1\2,1\3,1\4,1\5\6,1\5\7,1\8
REM DIRNAME folder01,folder02,folder03,folder04,folder05,folder06,folder07,folder08
TITLE ""
FILE "037 Åy037ÅzUnit2 (0421 immediate_0432 launch).mp3" MP3
  TRACK 01 AUDIO
    TITLE "0:"
    INDEX 01 00:00:00
  TRACK 02 AUDIO
    TITLE "2:cjc115_1378"
    INDEX 01 00:00:07
  TRACK 03 AUDIO
    TITLE "0:"
    INDEX 01 00:01:26
  TRACK 04 AUDIO
    TITLE "3:cjc115_1379"
    INDEX 01 00:01:32
  TRACK 05 AUDIO
    TITLE "0:"
    INDEX 01 00:03:45
  TRACK 06 AUDIO
    TITLE "4:cjc115_1380"
    INDEX 01 00:03:57
  TRACK 07 AUDIO
    TITLE "0:"
    INDEX 01 00:08:05
  TRACK 08 AUDIO
    TITLE "2:cjc115_1381"
    INDEX 01 00:09:10
  TRACK 09 AUDIO
    TITLE "0:"
    INDEX 01 00:10:27
  TRACK 10 AUDIO
    TITLE "3:cjc115_1382"
    INDEX 01 00:10:33
  TRACK 11 AUDIO
    TITLE "0:"
    INDEX 01 00:12:54
  TRACK 12 AUDIO
    TITLE "4:cjc115_1383"
    INDEX 01 00:12:65
  TRACK 13 AUDIO
    TITLE "0:"
    INDEX 01 00:17:41
  TRACK 14 AUDIO
    TITLE "2:cjc115_1384"
    INDEX 01 00:18:52
  TRACK 15 AUDIO
    TITLE "0:"
    INDEX 01 00:19:60
  TRACK 16 AUDIO
    TITLE "3:cjc115_1385"
    INDEX 01 00:19:67
  TRACK 17 AUDIO
    TITLE "0:"
    INDEX 01 00:21:17
  TRACK 18 AUDIO
    TITLE "4:cjc115_1386"
    INDEX 01 00:21:23
  TRACK 19 AUDIO
    TITLE "0:"
    INDEX 01 00:23:61
  TRACK 20 AUDIO
    TITLE "2:cjc115_1387"
    INDEX 01 00:24:69
  TRACK 21 AUDIO
    TITLE "0:"
    INDEX 01 00:26:11
  TRACK 22 AUDIO
    TITLE "3:cjc115_1388"
    INDEX 01 00:26:20
  TRACK 23 AUDIO
    TITLE "0:"
    INDEX 01 00:27:57
  TRACK 24 AUDIO
    TITLE "4:cjc115_1389"
    INDEX 01 00:27:71
  TRACK 25 AUDIO
    TITLE "0:"
    INDEX 01 00:31:35
  TRACK 26 AUDIO
    TITLE "2:cjc115_1390"
    INDEX 01 00:32:43
  TRACK 27 AUDIO
    TITLE "0:"
    INDEX 01 00:33:60
  TRACK 28 AUDIO
    TITLE "3:cjc115_1391"
    INDEX 01 00:33:68
  TRACK 29 AUDIO
    TITLE "0:"
    INDEX 01 00:35:23
  TRACK 30 AUDIO
    TITLE "4:cjc115_1392"
    INDEX 01 00:35:33
  TRACK 31 AUDIO
    TITLE "0:"
    INDEX 01 00:39:23
  TRACK 32 AUDIO
    TITLE "2:cjc115_1393"
    INDEX 01 00:40:32
  TRACK 33 AUDIO
    TITLE "0:"
    INDEX 01 00:41:65
  TRACK 34 AUDIO
    TITLE "3:cjc115_1394"
    INDEX 01 00:42:04
  TRACK 35 AUDIO
    TITLE "0:"
    INDEX 01 00:44:03
  TRACK 36 AUDIO
    TITLE "4:cjc115_1395"
    INDEX 01 00:44:14
  TRACK 37 AUDIO
    TITLE "0:"
    INDEX 01 00:48:59
  TRACK 38 AUDIO
    TITLE "2:cjc115_1396"
    INDEX 01 00:49:69
  TRACK 39 AUDIO
    TITLE "0:"
    INDEX 01 00:51:15
  TRACK 40 AUDIO
    TITLE "3:cjc115_1397"
    INDEX 01 00:51:24
  TRACK 41 AUDIO
    TITLE "0:"
    INDEX 01 00:54:11
  TRACK 42 AUDIO
    TITLE "4:cjc115_1398"
    INDEX 01 00:54:21
  TRACK 43 AUDIO
    TITLE "0:"
    INDEX 01 00:57:50
  TRACK 44 AUDIO
    TITLE "2:cjc115_1399"
    INDEX 01 00:58:58
  TRACK 45 AUDIO
    TITLE "0:"
    INDEX 01 00:59:69
  TRACK 46 AUDIO
    TITLE "3:cjc115_1400"
    INDEX 01 01:00:06
  TRACK 47 AUDIO
    TITLE "0:"
    INDEX 01 01:01:42
  TRACK 48 AUDIO
    TITLE "4:cjc115_1401"
    INDEX 01 01:01:50
  TRACK 49 AUDIO
    TITLE "0:"
    INDEX 01 01:04:45
  TRACK 50 AUDIO
    TITLE "2:cjc115_1402"
    INDEX 01 01:05:50
  TRACK 51 AUDIO
    TITLE "0:"
    INDEX 01 01:06:55
  TRACK 52 AUDIO
    TITLE "3:cjc115_1403"
    INDEX 01 01:06:61
  TRACK 53 AUDIO
    TITLE "0:"
    INDEX 01 01:10:12
  TRACK 54 AUDIO
    TITLE "4:cjc115_1404"
    INDEX 01 01:10:22
  TRACK 55 AUDIO
    TITLE "0:"
    INDEX 01 01:13:57
  TRACK 56 AUDIO
    TITLE "2:cjc115_1405"
    INDEX 01 01:14:65
  TRACK 57 AUDIO
    TITLE "0:"
    INDEX 01 01:15:66
  TRACK 58 AUDIO
    TITLE "3:cjc115_1406"
    INDEX 01 01:15:74
  TRACK 59 AUDIO
    TITLE "0:"
    INDEX 01 01:17:65
  TRACK 60 AUDIO
    TITLE "4:cjc115_1407"
    INDEX 01 01:18:00
  TRACK 61 AUDIO
    TITLE "0:"
    INDEX 01 01:21:39
  TRACK 62 AUDIO
    TITLE "2:cjc115_1408"
    INDEX 01 01:22:48
  TRACK 63 AUDIO
    TITLE "0:"
    INDEX 01 01:23:50
  TRACK 64 AUDIO
    TITLE "3:cjc115_1409"
    INDEX 01 01:23:60
  TRACK 65 AUDIO
    TITLE "0:"
    INDEX 01 01:27:06
  TRACK 66 AUDIO
    TITLE "4:cjc115_1410"
    INDEX 01 01:27:10
  TRACK 67 AUDIO
    TITLE "0:"
    INDEX 01 01:29:52
  TRACK 68 AUDIO
    TITLE "2:cjc115_1411"
    INDEX 01 01:30:60
  TRACK 69 AUDIO
    TITLE "0:"
    INDEX 01 01:31:69
  TRACK 70 AUDIO
    TITLE "3:cjc115_1412"
    INDEX 01 01:32:06
  TRACK 71 AUDIO
    TITLE "0:"
    INDEX 01 01:33:29
  TRACK 72 AUDIO
    TITLE "4:cjc115_1413"
    INDEX 01 01:33:36
  TRACK 73 AUDIO
    TITLE "0:"
    INDEX 01 01:36:35
